<svg id="visual" viewBox="0 0 960 300" width="960" height="300" xmlns="http://www.w3.org/2000/svg" xmlns:xlink="http://www.w3.org/1999/xlink" version="1.1"><rect x="0" y="0" width="960" height="300" fill="#0c0c0c"></rect><defs><linearGradient id="grad1_0" x1="68.8%" y1="0%" x2="100%" y2="100%"><stop offset="-14.000000000000007%" stop-color="#c629e3" stop-opacity="1"></stop><stop offset="114.00000000000001%" stop-color="#c629e3" stop-opacity="1"></stop></linearGradient></defs><defs><linearGradient id="grad1_1" x1="68.8%" y1="0%" x2="100%" y2="100%"><stop offset="-14.000000000000007%" stop-color="#c629e3" stop-opacity="1"></stop><stop offset="114.00000000000001%" stop-color="#832894" stop-opacity="1"></stop></linearGradient></defs><defs><linearGradient id="grad1_2" x1="68.8%" y1="0%" x2="100%" y2="100%"><stop offset="-14.000000000000007%" stop-color="#461f4c" stop-opacity="1"></stop><stop offset="114.00000000000001%" stop-color="#832894" stop-opacity="1"></stop></linearGradient></defs><defs><linearGradient id="grad1_3" x1="68.8%" y1="0%" x2="100%" y2="100%"><stop offset="-14.000000000000007%" stop-color="#461f4c" stop-opacity="1"></stop><stop offset="114.00000000000001%" stop-color="#0c0c0c" stop-opacity="1"></stop></linearGradient></defs><defs><linearGradient id="grad2_0" x1="0%" y1="0%" x2="31.3%" y2="100%"><stop offset="-14.000000000000007%" stop-color="#c629e3" stop-opacity="1"></stop><stop offset="114.00000000000001%" stop-color="#c629e3" stop-opacity="1"></stop></linearGradient></defs><defs><linearGradient id="grad2_1" x1="0%" y1="0%" x2="31.3%" y2="100%"><stop offset="-14.000000000000007%" stop-color="#832894" stop-opacity="1"></stop><stop offset="114.00000000000001%" stop-color="#c629e3" stop-opacity="1"></stop></linearGradient></defs><defs><linearGradient id="grad2_2" x1="0%" y1="0%" x2="31.3%" y2="100%"><stop offset="-14.000000000000007%" stop-color="#832894" stop-opacity="1"></stop><stop offset="114.00000000000001%" stop-color="#461f4c" stop-opacity="1"></stop></linearGradient></defs><defs><linearGradient id="grad2_3" x1="0%" y1="0%" x2="31.3%" y2="100%"><stop offset="-14.000000000000007%" stop-color="#0c0c0c" stop-opacity="1"></stop><stop offset="114.00000000000001%" stop-color="#461f4c" stop-opacity="1"></stop></linearGradient></defs><g transform="translate(960, 0)"><path d="M0 210C-21.1 192.3 -42.2 174.6 -69.3 167.2C-96.4 159.9 -129.5 162.9 -148.5 148.5C-167.5 134.1 -172.3 102.3 -180.2 74.6C-188 47 -199 23.5 -210 0L0 0Z" fill="#29182c"></path><path d="M0 157.5C-15.8 144.2 -31.6 130.9 -51.9 125.4C-72.3 119.9 -97.1 122.2 -111.4 111.4C-125.6 100.6 -129.2 76.7 -135.1 56C-141 35.2 -149.3 17.6 -157.5 0L0 0Z" fill="#64246f"></path><path d="M0 105C-10.5 96.1 -21.1 87.3 -34.6 83.6C-48.2 79.9 -64.8 81.4 -74.2 74.2C-83.7 67 -86.1 51.1 -90.1 37.3C-94 23.5 -99.5 11.7 -105 0L0 0Z" fill="#a42abb"></path><path d="M0 52.5C-5.3 48.1 -10.5 43.6 -17.3 41.8C-24.1 40 -32.4 40.7 -37.1 37.1C-41.9 33.5 -43.1 25.6 -45 18.7C-47 11.7 -49.8 5.9 -52.5 0L0 0Z" fill="#c629e3"></path></g><g transform="translate(0, 300)"><path d="M0 -210C27.9 -203.1 55.8 -196.3 75 -181.1C94.3 -165.9 104.9 -142.3 125.9 -125.9C146.9 -109.4 178.3 -100.2 194 -80.4C209.8 -60.6 209.9 -30.3 210 0L0 0Z" fill="#29182c"></path><path d="M0 -157.5C20.9 -152.4 41.8 -147.2 56.3 -135.8C70.7 -124.4 78.6 -106.7 94.4 -94.4C110.2 -82.1 133.7 -75.1 145.5 -60.3C157.3 -45.4 157.4 -22.7 157.5 0L0 0Z" fill="#64246f"></path><path d="M0 -105C13.9 -101.6 27.9 -98.1 37.5 -90.5C47.1 -82.9 52.4 -71.1 62.9 -62.9C73.4 -54.7 89.1 -50.1 97 -40.2C104.9 -30.3 104.9 -15.1 105 0L0 0Z" fill="#a42abb"></path><path d="M0 -52.5C7 -50.8 13.9 -49.1 18.8 -45.3C23.6 -41.5 26.2 -35.6 31.5 -31.5C36.7 -27.4 44.6 -25 48.5 -20.1C52.4 -15.1 52.5 -7.6 52.5 0L0 0Z" fill="#c629e3"></path></g></svg>