<svg id="visual" viewBox="0 0 960 200" width="960" height="200" xmlns="http://www.w3.org/2000/svg" xmlns:xlink="http://www.w3.org/1999/xlink" version="1.1"><rect x="0" y="0" width="960" height="200" fill="#C629E3"></rect><path d="M0 62L22.8 67.3C45.7 72.7 91.3 83.3 137 87.3C182.7 91.3 228.3 88.7 274 80.8C319.7 73 365.3 60 411.2 53.2C457 46.3 503 45.7 548.8 48.8C594.7 52 640.3 59 686 63.3C731.7 67.7 777.3 69.3 823 66.8C868.7 64.3 914.3 57.7 937.2 54.3L960 51L960 201L937.2 201C914.3 201 868.7 201 823 201C777.3 201 731.7 201 686 201C640.3 201 594.7 201 548.8 201C503 201 457 201 411.2 201C365.3 201 319.7 201 274 201C228.3 201 182.7 201 137 201C91.3 201 45.7 201 22.8 201L0 201Z" fill="#b71fd2"></path><path d="M0 78L22.8 74.7C45.7 71.3 91.3 64.7 137 70.7C182.7 76.7 228.3 95.3 274 95.7C319.7 96 365.3 78 411.2 70.3C457 62.7 503 65.3 548.8 73.3C594.7 81.3 640.3 94.7 686 93.8C731.7 93 777.3 78 823 71.3C868.7 64.7 914.3 66.3 937.2 67.2L960 68L960 201L937.2 201C914.3 201 868.7 201 823 201C777.3 201 731.7 201 686 201C640.3 201 594.7 201 548.8 201C503 201 457 201 411.2 201C365.3 201 319.7 201 274 201C228.3 201 182.7 201 137 201C91.3 201 45.7 201 22.8 201L0 201Z" fill="#ce67de"></path><path d="M0 129L22.8 123.5C45.7 118 91.3 107 137 106.3C182.7 105.7 228.3 115.3 274 122.5C319.7 129.7 365.3 134.3 411.2 130.3C457 126.3 503 113.7 548.8 109.8C594.7 106 640.3 111 686 115.8C731.7 120.7 777.3 125.3 823 127.7C868.7 130 914.3 130 937.2 130L960 130L960 201L937.2 201C914.3 201 868.7 201 823 201C777.3 201 731.7 201 686 201C640.3 201 594.7 201 548.8 201C503 201 457 201 411.2 201C365.3 201 319.7 201 274 201C228.3 201 182.7 201 137 201C91.3 201 45.7 201 22.8 201L0 201Z" fill="#e19cea"></path><path d="M0 157L22.8 149.8C45.7 142.7 91.3 128.3 137 123.5C182.7 118.7 228.3 123.3 274 132.8C319.7 142.3 365.3 156.7 411.2 162.8C457 169 503 167 548.8 158C594.7 149 640.3 133 686 131.2C731.7 129.3 777.3 141.7 823 149.5C868.7 157.3 914.3 160.7 937.2 162.3L960 164L960 201L937.2 201C914.3 201 868.7 201 823 201C777.3 201 731.7 201 686 201C640.3 201 594.7 201 548.8 201C503 201 457 201 411.2 201C365.3 201 319.7 201 274 201C228.3 201 182.7 201 137 201C91.3 201 45.7 201 22.8 201L0 201Z" fill="#f1cef5"></path><path d="M0 145L22.8 152.8C45.7 160.7 91.3 176.3 137 181.7C182.7 187 228.3 182 274 182.5C319.7 183 365.3 189 411.2 184.8C457 180.7 503 166.3 548.8 158.2C594.7 150 640.3 148 686 155.2C731.7 162.3 777.3 178.7 823 184.3C868.7 190 914.3 185 937.2 182.5L960 180L960 201L937.2 201C914.3 201 868.7 201 823 201C777.3 201 731.7 201 686 201C640.3 201 594.7 201 548.8 201C503 201 457 201 411.2 201C365.3 201 319.7 201 274 201C228.3 201 182.7 201 137 201C91.3 201 45.7 201 22.8 201L0 201Z" fill="#ffffff"></path></svg>