<svg id="visual" viewBox="0 0 960 200" width="960" height="200" xmlns="http://www.w3.org/2000/svg" xmlns:xlink="http://www.w3.org/1999/xlink" version="1.1"><rect x="0" y="0" width="960" height="200" fill="#C629E3"></rect><path d="M0 123L22.8 121.7C45.7 120.3 91.3 117.7 137 125.8C182.7 134 228.3 153 274 162.3C319.7 171.7 365.3 171.3 411.2 162.8C457 154.3 503 137.7 548.8 128.7C594.7 119.7 640.3 118.3 686 119C731.7 119.7 777.3 122.3 823 128.3C868.7 134.3 914.3 143.7 937.2 148.3L960 153L960 0L937.2 0C914.3 0 868.7 0 823 0C777.3 0 731.7 0 686 0C640.3 0 594.7 0 548.8 0C503 0 457 0 411.2 0C365.3 0 319.7 0 274 0C228.3 0 182.7 0 137 0C91.3 0 45.7 0 22.8 0L0 0Z" fill="#b71fd2"></path><path d="M0 76L22.8 79C45.7 82 91.3 88 137 95.7C182.7 103.3 228.3 112.7 274 120.8C319.7 129 365.3 136 411.2 131.3C457 126.7 503 110.3 548.8 109.5C594.7 108.7 640.3 123.3 686 124.2C731.7 125 777.3 112 823 105.3C868.7 98.7 914.3 98.3 937.2 98.2L960 98L960 0L937.2 0C914.3 0 868.7 0 823 0C777.3 0 731.7 0 686 0C640.3 0 594.7 0 548.8 0C503 0 457 0 411.2 0C365.3 0 319.7 0 274 0C228.3 0 182.7 0 137 0C91.3 0 45.7 0 22.8 0L0 0Z" fill="#ce67de"></path><path d="M0 86L22.8 87.2C45.7 88.3 91.3 90.7 137 91.8C182.7 93 228.3 93 274 94C319.7 95 365.3 97 411.2 100C457 103 503 107 548.8 100C594.7 93 640.3 75 686 68.7C731.7 62.3 777.3 67.7 823 73C868.7 78.3 914.3 83.7 937.2 86.3L960 89L960 0L937.2 0C914.3 0 868.7 0 823 0C777.3 0 731.7 0 686 0C640.3 0 594.7 0 548.8 0C503 0 457 0 411.2 0C365.3 0 319.7 0 274 0C228.3 0 182.7 0 137 0C91.3 0 45.7 0 22.8 0L0 0Z" fill="#e19cea"></path><path d="M0 43L22.8 43C45.7 43 91.3 43 137 48.5C182.7 54 228.3 65 274 64.7C319.7 64.3 365.3 52.7 411.2 49.7C457 46.7 503 52.3 548.8 52.7C594.7 53 640.3 48 686 46.3C731.7 44.7 777.3 46.3 823 44.3C868.7 42.3 914.3 36.7 937.2 33.8L960 31L960 0L937.2 0C914.3 0 868.7 0 823 0C777.3 0 731.7 0 686 0C640.3 0 594.7 0 548.8 0C503 0 457 0 411.2 0C365.3 0 319.7 0 274 0C228.3 0 182.7 0 137 0C91.3 0 45.7 0 22.8 0L0 0Z" fill="#f1cef5"></path><path d="M0 14L22.8 13.5C45.7 13 91.3 12 137 18.5C182.7 25 228.3 39 274 44.8C319.7 50.7 365.3 48.3 411.2 40.7C457 33 503 20 548.8 12.7C594.7 5.3 640.3 3.7 686 10.3C731.7 17 777.3 32 823 36.7C868.7 41.3 914.3 35.7 937.2 32.8L960 30L960 0L937.2 0C914.3 0 868.7 0 823 0C777.3 0 731.7 0 686 0C640.3 0 594.7 0 548.8 0C503 0 457 0 411.2 0C365.3 0 319.7 0 274 0C228.3 0 182.7 0 137 0C91.3 0 45.7 0 22.8 0L0 0Z" fill="#ffffff"></path></svg>